PathFileType	4	(X/Y/Z)	Patient4_TMGait_0pt2_01_right_24.trc.trc
DataRate	CameraRate	NumFrames	NumMarkers	Units	OrigDataRate	OrigDataStartFrame	OrigNumFrames
46.052631578947	46.052631578947	5	33	mm	46.052631578947	18	       141
Frame#	Time	Sacral			L.Shoulder			Chest			R.Shoulder			Neck			R.ASIS			L.ASIS			R.Thigh.Superior			R.Thigh.Lateral			R.Thigh.Inferior			R.Patella			L.Thigh.Superior			L.Thigh.Lateral			L.Thigh.Inferior			L.Patella			L.Shank.Superior			L.Shank.Lateral			L.Shank.Inferior			R.Shank.Superior			R.Shank.Lateral			R.Shank.Inferior			R.Heel			R.Midfoot.Superior			R.Midfoot.Lateral			R.Toe			L.Heel			L.Midfoot.Lateral			L.Midfoot.Superior			L.Toe			L.Elbow			L.Wrist			R.Elbow			R.Wrist			
		X1	Y1	Z1	X2	Y2	Z2	X3	Y3	Z3	X4	Y4	Z4	X5	Y5	Z5	X6	Y6	Z6	X7	Y7	Z7	X8	Y8	Z8	X9	Y9	Z9	X10	Y10	Z10	X11	Y11	Z11	X12	Y12	Z12	X13	Y13	Z13	X14	Y14	Z14	X15	Y15	Z15	X16	Y16	Z16	X17	Y17	Z17	X18	Y18	Z18	X19	Y19	Z19	X20	Y20	Z20	X21	Y21	Z21	X22	Y22	Z22	X23	Y23	Z23	X24	Y24	Z24	X25	Y25	Z25	X26	Y26	Z26	X27	Y27	Z27	X28	Y28	Z28	X29	Y29	Z29	X30	Y30	Z30	X31	Y31	Z31	X32	Y32	Z32	X33	Y33	Z33	

18	54.249142857143	838.254927527983	1006.139350379783	365.792774991910	1065.159001860903	1435.826566104517	233.084766407505	1119.459407877235	1362.268178338240	413.232327433823	995.823086904227	1433.378444187310	562.130298956548	1005.287695671184	1494.802615233334	384.431918390653	1044.354005469238	943.585359435854	525.627005027003	1077.582301744991	959.255225939524	251.130596940598	1115.752299373591	767.207277014803	506.802246274719	1065.009303859072	651.206579283231	582.613869693487	1154.876647344218	604.649287725536	509.641485187053	1182.307584467229	517.300135041622	534.395585327987	1097.601523782313	735.839200842305	292.698320776872	1004.826275863563	620.398277122045	229.371518415620	1070.708919479563	542.659187210356	307.482497912894	1062.564811216407	473.573230892154	320.478600882301	1026.556028250688	403.285234322960	313.964102928497	930.288621471698	296.091982386470	260.540590422121	956.535820066071	185.661208166566	343.775874589998	1151.136313547295	430.156879174850	550.050169236618	1077.163769822759	334.092167988755	621.827564883040	1129.914579530635	232.421634988011	579.220083841366	1005.557128817751	57.356812101401	568.137998014060	1176.846658533674	118.516238701047	603.075848101037	1092.152102405311	50.158559393397	639.420913909749	1297.306184716926	71.523744480464	625.103522123741	810.505039872411	39.680191466444	382.861409547075	888.515270624985	35.765087392256	306.584050472343	971.678821135551	95.485460213164	337.365989858635	1100.682993807824	40.355218821300	315.479992592067	1213.801321076727	1145.149606798591	79.042335470108	1461.706987415053	1064.270538986568	107.799606976895	813.589564650233	1131.781549610611	626.897148702249	768.314045297296	873.929303237957	612.635658800358	
19	54.270857142857	839.166559564447	1005.418004776488	367.194200787192	1065.820497193379	1435.287139556327	235.931470625271	1118.992766052878	1362.133916923979	416.549010773652	994.145332086999	1433.253955873578	564.482778485009	1004.874857596268	1494.416552973083	386.789612594437	1044.088552074007	942.517756138716	528.613514854595	1079.233055267191	959.098899710135	254.189625818064	1113.886445972752	764.556727202682	510.654686638634	1060.440251567417	648.878593780505	585.184092496407	1150.728826017320	601.914614621958	513.079286210834	1177.321098079342	516.572649485975	536.613715919676	1097.005591213488	735.057486365801	295.076285536271	1003.155906325178	620.649513250129	230.411828212748	1067.628369984015	541.983714310486	308.358855398653	1058.538449583666	473.054974218321	321.089640663624	1022.719204676088	403.094947518921	314.365045800339	926.354892851829	296.142978036857	260.697489120552	952.317053451972	185.552683881045	343.816897754707	1149.770173932847	429.074401393656	551.934726072219	1079.801150464980	329.781143571073	623.673084825235	1136.510827149154	230.301420311292	580.495179293191	1018.698631674700	51.205092355345	569.490260140695	1188.244138835937	117.419977209281	603.460515109254	1105.946864923637	46.312650402347	640.136951883573	1310.418786874140	74.157773493588	624.536217278992	806.133954670093	39.657462616651	382.771277523693	884.137801048539	35.695525646341	306.543351291322	967.305009825087	95.448687684451	337.323921867534	1096.308681127759	40.318350493889	315.486697872734	1217.373586776287	1146.789563072426	81.787826928165	1467.716433117506	1073.979143712486	110.732541678246	812.487223005892	1131.565611805751	627.930589355372	768.212714083750	873.518244656906	612.923255244504	
20	54.292571428571	840.252095431229	1004.347275271281	369.125325034451	1066.141866233550	1434.481502384232	238.971559230254	1118.681250677569	1361.765561210660	419.926560354522	992.972424558609	1432.795905383723	567.224736962666	1004.505426837835	1493.761459364097	389.478572439522	1044.265337855864	941.105986072891	531.711389555108	1080.918724456177	958.748711969654	257.387164317705	1112.677257338046	761.566740589323	514.418319465454	1056.463414652465	646.210568653073	587.510507900600	1147.143131023091	598.967663406510	516.158544891900	1172.645466888609	515.287071788311	538.446923791027	1096.834311193992	734.192561628084	297.584683158308	1001.998670981897	620.716986010231	231.728479578822	1065.211096363930	541.201778040068	309.465840295274	1055.263660770755	472.348999384024	321.922505353234	1019.446446944031	402.703488650211	314.995047397221	922.778106852467	296.194857211681	261.032132767367	948.285635281067	185.350984489812	343.942134212024	1148.099007315241	427.468508399405	553.504307058827	1081.371512668559	325.747122895590	625.069847762097	1141.041112435136	228.181796178196	581.314722105326	1028.297546442947	46.723045747385	570.309360831173	1196.410511925907	116.138412306104	603.314458956307	1115.964565576815	43.394017646826	640.414762783081	1319.702774263486	75.530660568536	623.641930111971	801.757196535533	39.630827810811	382.690996684854	879.760409358602	35.629091293350	306.508455386923	962.934601853307	95.409864324128	337.294943502380	1091.933243769490	40.275063940800	315.486803330704	1220.065445527862	1147.573570232585	84.950806957477	1472.281963738291	1081.703479714783	114.038334556691	813.105842868593	1130.164086816835	630.000050212276	770.755120653784	871.760890180223	614.658528294891	
21	54.314285714286	841.510999297031	1003.052872000736	371.607740973255	1066.154302504693	1433.514990463542	242.205332647429	1118.556721029766	1361.271236364271	423.370319535619	992.342914017132	1432.128915793151	570.367692813234	1004.199862001499	1492.938287746487	392.506497963435	1044.912421420429	939.501213307019	534.924497321079	1082.632577038705	958.286480873782	260.729652517406	1112.201858025764	758.446848575633	518.029819567837	1053.278410288310	643.386863027613	589.597866977469	1144.283635934031	596.022682877957	518.831939571902	1168.506206056242	513.612463483928	539.885004101246	1097.024365700222	733.272167469573	300.210727152592	1001.237956923380	620.658450228597	233.337065094887	1063.343253492503	540.350456938917	310.807229574512	1052.621954515641	471.508441354720	322.983855368679	1016.641185273812	402.171392446281	315.853047143339	919.476848262671	296.285874749969	261.552358667730	944.408489218504	185.093216083335	344.152455148616	1146.324688000168	425.465635163624	554.774887852870	1082.046821539591	322.042460404558	626.088532553839	1143.681065801066	226.019245359141	581.732017158188	1034.414950063251	43.678396447446	570.689423052950	1201.524588223456	114.557812300065	602.732587688618	1122.324757245103	41.219574416077	640.368687433637	1325.440642731407	75.535790448278	622.537249016678	797.376837148447	39.612776809394	382.620901214941	875.384642268504	35.575715494431	306.482008386778	958.570723605455	95.374391091066	337.278752689752	1087.556826793244	40.225611330402	315.479753251582	1221.860798718153	1147.585145593547	88.486385920091	1475.466735519769	1087.448174090163	117.635924772500	815.258750395549	1127.871242552723	633.112598663323	775.629100015224	869.001616922009	617.830310896627	
22	54.336000000000	842.935716685839	1001.672028001380	374.656092158397	1065.912604526245	1432.494502192974	245.628058087989	1118.648580861992	1360.756823471030	426.883572462383	992.282779742313	1431.384180471706	573.903806767478	1003.986709548234	1492.053475116378	395.867520811436	1046.043366896720	937.866557609413	538.266425483547	1084.359507784347	957.791260889058	264.225496525948	1112.504522560608	755.417960439642	521.444578898656	1051.076013764289	640.600883862182	591.491596594953	1142.297854259736	593.283685553026	521.092199874321	1165.117235120651	511.724061020423	540.957109783845	1097.486125303894	732.329184562022	302.950637761804	1000.735977570121	620.540634841509	235.248145531198	1061.884782460831	539.474623363571	312.382904902178	1050.466213302957	470.596144429349	324.274947333959	1014.189355343267	401.570092712747	316.931235868288	916.359375139638	296.458998649705	262.262982571672	940.649232529056	184.823899339636	344.447135871204	1144.667735516500	423.221195709600	555.783243679375	1082.081151123160	318.730689021604	626.834393073592	1144.716680514340	223.821023920946	581.821459881709	1037.335004470228	41.822138906343	570.743927715790	1203.922763236940	112.657568723280	601.835937596451	1125.361055482615	39.634540959255	640.120761250098	1328.074207516311	74.234113114136	621.339748427238	792.997039042076	39.624457935241	382.560619903527	871.013382107862	35.550294593144	306.467283598486	954.219510552783	95.349426629129	337.275418112831	1083.180376115716	40.168728818344	315.465027693306	1222.764781871070	1146.926363970314	92.339713888651	1477.351133671002	1091.269579171877	121.426926779302	818.727954962789	1125.016651702582	637.229923199834	782.474072262323	865.620571088471	622.359777735528	
